<svg width="182" height="76" viewBox="0 0 182 76" fill="none" xmlns="http://www.w3.org/2000/svg">
<path d="M21.139 46.3157V64.9741H18.6853V51.0612L12.4839 64.9741H10.7582L4.52978 51.0343V64.9741H2.07615V46.3157H4.71852L11.621 61.7386L18.5236 46.3157H21.139ZM31.7443 65.2168C30.3602 65.2168 29.1019 64.9022 27.9694 64.2731C26.855 63.6439 25.9742 62.7542 25.3271 61.6038C24.6979 60.4354 24.3834 59.0872 24.3834 57.5593C24.3834 56.0494 24.7069 54.7192 25.354 53.5688C26.0191 52.4004 26.9179 51.5106 28.0503 50.8995C29.1828 50.2703 30.45 49.9557 31.8521 49.9557C33.2542 49.9557 34.5214 50.2703 35.6539 50.8995C36.7863 51.5106 37.6761 52.3914 38.3232 53.5418C38.9883 54.6922 39.3209 56.0314 39.3209 57.5593C39.3209 59.0872 38.9793 60.4354 38.2963 61.6038C37.6312 62.7542 36.7234 63.6439 35.573 64.2731C34.4226 64.9022 33.1463 65.2168 31.7443 65.2168ZM31.7443 63.0598C32.625 63.0598 33.4519 62.853 34.2249 62.4396C34.9978 62.0262 35.6179 61.406 36.0853 60.5792C36.5706 59.7523 36.8133 58.7457 36.8133 57.5593C36.8133 56.3729 36.5796 55.3663 36.1123 54.5395C35.6449 53.7126 35.0337 53.1014 34.2788 52.706C33.5238 52.2925 32.7059 52.0858 31.8251 52.0858C30.9264 52.0858 30.0995 52.2925 29.3446 52.706C28.6076 53.1014 28.0144 53.7126 27.565 54.5395C27.1156 55.3663 26.8909 56.3729 26.8909 57.5593C26.8909 58.7637 27.1066 59.7793 27.538 60.6061C27.9874 61.433 28.5806 62.0531 29.3176 62.4666C30.0546 62.862 30.8635 63.0598 31.7443 63.0598ZM49.746 49.9288C51.5436 49.9288 52.9996 50.477 54.114 51.5735C55.2285 52.652 55.7857 54.2159 55.7857 56.2651V64.9741H53.3591V56.6156C53.3591 55.1416 52.9906 54.0182 52.2536 53.2452C51.5166 52.4543 50.51 52.0589 49.2337 52.0589C47.9395 52.0589 46.9059 52.4633 46.133 53.2722C45.378 54.0811 45.0006 55.2585 45.0006 56.8043V64.9741H42.5469V50.1984H45.0006V52.3015C45.4859 51.5466 46.142 50.9624 46.9689 50.5489C47.8137 50.1355 48.7394 49.9288 49.746 49.9288ZM73.2752 57.02C73.2752 57.4874 73.2483 57.9817 73.1943 58.503H61.3846C61.4744 59.959 61.9688 61.1004 62.8675 61.9273C63.7843 62.7362 64.8897 63.1406 66.184 63.1406C67.2445 63.1406 68.1253 62.898 68.8263 62.4126C69.5454 61.9093 70.0487 61.2442 70.3363 60.4174H72.9786C72.5832 61.8374 71.7923 62.9968 70.6059 63.8956C69.4195 64.7764 67.9455 65.2168 66.184 65.2168C64.7819 65.2168 63.5236 64.9022 62.4092 64.2731C61.3127 63.6439 60.4498 62.7542 59.8207 61.6038C59.1916 60.4354 58.877 59.0872 58.877 57.5593C58.877 56.0314 59.1826 54.6922 59.7937 53.5418C60.4049 52.3914 61.2587 51.5106 62.3552 50.8995C63.4697 50.2703 64.7459 49.9557 66.184 49.9557C67.586 49.9557 68.8263 50.2613 69.9049 50.8725C70.9834 51.4837 71.8102 52.3285 72.3855 53.407C72.9786 54.4676 73.2752 55.6719 73.2752 57.02ZM70.7407 56.5077C70.7407 55.573 70.534 54.7731 70.1206 54.108C69.7071 53.425 69.1409 52.9127 68.4219 52.5712C67.7209 52.2117 66.9389 52.0319 66.0761 52.0319C64.8358 52.0319 63.7753 52.4274 62.8945 53.2183C62.0317 54.0092 61.5374 55.1057 61.4115 56.5077H70.7407ZM89.2405 50.1984L80.3427 71.9306H77.8082L80.7202 64.8123L74.7614 50.1984H77.4846L82.1222 62.17L86.7059 50.1984H89.2405ZM113.132 51.6275C112.61 50.531 111.856 49.6861 110.867 49.0929C109.878 48.4818 108.728 48.1762 107.416 48.1762C106.103 48.1762 104.917 48.4818 103.856 49.0929C102.814 49.6861 101.987 50.5489 101.376 51.6814C100.783 52.7958 100.486 54.0901 100.486 55.564C100.486 57.038 100.783 58.3322 101.376 59.4467C101.987 60.5612 102.814 61.424 103.856 62.0352C104.917 62.6283 106.103 62.9249 107.416 62.9249C109.249 62.9249 110.759 62.3767 111.945 61.2802C113.132 60.1837 113.824 58.7007 114.022 56.8313H106.526V54.836H116.637V56.7235C116.493 58.2693 116.008 59.6894 115.181 60.9836C114.354 62.2598 113.267 63.2755 111.918 64.0304C110.57 64.7674 109.069 65.1359 107.416 65.1359C105.672 65.1359 104.081 64.7315 102.643 63.9226C101.205 63.0957 100.064 61.9543 99.2189 60.4983C98.392 59.0423 97.9786 57.3975 97.9786 55.564C97.9786 53.7306 98.392 52.0858 99.2189 50.6298C100.064 49.1558 101.205 48.0144 102.643 47.2055C104.081 46.3787 105.672 45.9652 107.416 45.9652C109.411 45.9652 111.172 46.4596 112.7 47.4482C114.246 48.4368 115.37 49.8299 116.071 51.6275H113.132ZM132.985 50.1984V64.9741H130.532V62.7901C130.064 63.5451 129.408 64.1383 128.563 64.5697C127.736 64.9831 126.82 65.1898 125.813 65.1898C124.663 65.1898 123.629 64.9561 122.712 64.4888C121.796 64.0035 121.068 63.2844 120.528 62.3318C120.007 61.3791 119.746 60.2197 119.746 58.8535V50.1984H122.173V58.53C122.173 59.986 122.541 61.1094 123.278 61.9003C124.015 62.6733 125.022 63.0598 126.298 63.0598C127.611 63.0598 128.644 62.6553 129.399 61.8464C130.154 61.0375 130.532 59.8601 130.532 58.3143V50.1984H132.985ZM136.211 57.5323C136.211 56.0224 136.517 54.7012 137.128 53.5688C137.739 52.4184 138.575 51.5286 139.636 50.8995C140.714 50.2703 141.909 49.9557 143.222 49.9557C144.516 49.9557 145.639 50.2344 146.592 50.7916C147.545 51.3488 148.255 52.0499 148.722 52.8947V50.1984H151.203V64.9741H148.722V62.2239C148.237 63.0867 147.509 63.8057 146.538 64.3809C145.585 64.9382 144.471 65.2168 143.195 65.2168C141.882 65.2168 140.696 64.8932 139.636 64.2461C138.575 63.599 137.739 62.6913 137.128 61.5229C136.517 60.3545 136.211 59.0243 136.211 57.5323ZM148.722 57.5593C148.722 56.4448 148.497 55.4742 148.048 54.6473C147.599 53.8204 146.987 53.1913 146.214 52.7599C145.46 52.3105 144.624 52.0858 143.707 52.0858C142.79 52.0858 141.954 52.3015 141.199 52.7329C140.444 53.1643 139.842 53.7935 139.393 54.6203C138.943 55.4472 138.719 56.4179 138.719 57.5323C138.719 58.6648 138.943 59.6534 139.393 60.4983C139.842 61.3251 140.444 61.9633 141.199 62.4126C141.954 62.844 142.79 63.0598 143.707 63.0598C144.624 63.0598 145.46 62.844 146.214 62.4126C146.987 61.9633 147.599 61.3251 148.048 60.4983C148.497 59.6534 148.722 58.6738 148.722 57.5593ZM157.803 52.5981C158.234 51.7533 158.845 51.0972 159.636 50.6298C160.445 50.1625 161.425 49.9288 162.575 49.9288V52.4633H161.928C159.178 52.4633 157.803 53.9553 157.803 56.9392V64.9741H155.349V50.1984H157.803V52.5981ZM164.491 57.5323C164.491 56.0224 164.796 54.7012 165.407 53.5688C166.019 52.4184 166.854 51.5286 167.915 50.8995C168.994 50.2703 170.198 49.9557 171.528 49.9557C172.678 49.9557 173.748 50.2254 174.737 50.7646C175.725 51.2859 176.48 51.978 177.002 52.8408V45.0215H179.482V64.9741H177.002V62.1969C176.516 63.0777 175.797 63.8057 174.845 64.3809C173.892 64.9382 172.777 65.2168 171.501 65.2168C170.189 65.2168 168.994 64.8932 167.915 64.2461C166.854 63.599 166.019 62.6913 165.407 61.5229C164.796 60.3545 164.491 59.0243 164.491 57.5323ZM177.002 57.5593C177.002 56.4448 176.777 55.4742 176.327 54.6473C175.878 53.8204 175.267 53.1913 174.494 52.7599C173.739 52.3105 172.903 52.0858 171.986 52.0858C171.07 52.0858 170.234 52.3015 169.479 52.7329C168.724 53.1643 168.122 53.7935 167.672 54.6203C167.223 55.4472 166.998 56.4179 166.998 57.5323C166.998 58.6648 167.223 59.6534 167.672 60.4983C168.122 61.3251 168.724 61.9633 169.479 62.4126C170.234 62.844 171.07 63.0598 171.986 63.0598C172.903 63.0598 173.739 62.844 174.494 62.4126C175.267 61.9633 175.878 61.3251 176.327 60.4983C176.777 59.6534 177.002 58.6738 177.002 57.5593Z" fill="#FBFBFB"/>
<g clip-path="url(#clip0_30_2213)">
<path fill-rule="evenodd" clip-rule="evenodd" d="M97.6828 4.94514C95.1371 4.30829 92.5913 3.03458 90.682 1.12402C88.7727 3.03458 86.2269 4.30829 83.6812 4.94514C84.3176 10.6768 86.2269 14.4979 90.682 17.6822C95.1371 14.4979 97.6828 10.6768 97.6828 4.94514Z" fill="#FFC727"/>
<path fill-rule="evenodd" clip-rule="evenodd" d="M95.1365 28.6578L77.3162 7.6416V17.8313L91.3179 33.7526L95.1365 28.6578Z" fill="#FBFBFB"/>
<path fill-rule="evenodd" clip-rule="evenodd" d="M97.0461 26.7476L104.683 17.8316V8.27881L92.5911 22.2896L97.0461 26.7476Z" fill="#FBFBFB"/>
<path fill-rule="evenodd" clip-rule="evenodd" d="M97.6826 29.9319V35.6636L104.683 27.3845V21.6528L97.6826 29.9319Z" fill="#FBFBFB"/>
<path fill-rule="evenodd" clip-rule="evenodd" d="M84.317 29.9319L77.3162 21.6528V27.3845L84.317 35.6636V29.9319Z" fill="#FBFBFB"/>
</g>
<defs>
<clipPath id="clip0_30_2213">
<rect width="35.9506" height="35.9739" fill="white" transform="translate(73.0249)"/>
</clipPath>
</defs>
</svg>
